<svg id="Layer_1" data-name="Layer 1" xmlns="http://www.w3.org/2000/svg" viewBox="0 0 84 93.04"><path d="M6.72,71.75v-47a20.43,20.43,0,0,1,2.64-2.12C21.17,15.86,32.93,9,44.91,2.58c1.74-.93,4.93-.49,6.86.48C63.32,8.89,74.72,15,86.11,21.15a34,34,0,0,1,4.61,3.58v47a27.31,27.31,0,0,1-4.08,3.5c-11.59,6.49-23.14,13-34.95,19.11a10.12,10.12,0,0,1-8.12-.21c-11-5.9-21.66-12.3-32.38-18.62A33.89,33.89,0,0,1,6.72,71.75ZM84.88,48.43c0-6,.25-12-.14-18a7.49,7.49,0,0,0-3.08-5.33Q66.51,16.61,50.93,8.86a7.83,7.83,0,0,0-6.24.1c-9.79,5.24-19.44,10.75-29,16.45a6.87,6.87,0,0,0-3,4.83q-.39,18.23,0,36.47a7,7,0,0,0,2.91,4.92c9.48,5.8,19.08,11.42,28.84,16.72a8.29,8.29,0,0,0,6.69.09q15.45-8,30.47-16.82a7.55,7.55,0,0,0,3.15-5.21C85.13,60.44,84.88,54.43,84.88,48.43Z" transform="translate(-6.72 -2.07)" fill="#e8e8e8"/><path d="M48.63,67.35,32.42,40.1H63.68Z" transform="translate(-6.72 -2.07)" fill="#e8e8e8"/><path d="M68.94,42.73l10.7,24L54,69.78Z" transform="translate(-6.72 -2.07)" fill="#e8e8e8"/><path d="M27.82,43.73l15.43,26L17.81,66.78C21.11,59.17,24.22,52,27.82,43.73Z" transform="translate(-6.72 -2.07)" fill="#e8e8e8"/><path d="M47.9,15,63.42,33.7H33.92Z" transform="translate(-6.72 -2.07)" fill="#e8e8e8"/><path d="M19.11,28,37.68,17.46c.19.2.37.41.55.62C35,22.51,31.79,27,28.33,31.29a3.85,3.85,0,0,1-3.59.63C22.85,31.07,21.25,29.56,19.11,28Z" transform="translate(-6.72 -2.07)" fill="#e8e8e8"/><path d="M58.52,17.31,77.76,27.47C75.9,28.69,74.39,29.6,73,30.64c-2.35,1.74-3.93,1.3-5.68-1.11-2.9-4-6.2-7.7-9.34-11.52Z" transform="translate(-6.72 -2.07)" fill="#e8e8e8"/><path d="M79.92,53l-7-15.56,7.66-4.56V52.58Z" transform="translate(-6.72 -2.07)" fill="#e8e8e8"/><path d="M28.93,73.78l16.44,2.07v8.46L28.56,74.56C28.68,74.3,28.8,74,28.93,73.78Z" transform="translate(-6.72 -2.07)" fill="#e8e8e8"/><path d="M50.68,84.28c.43-3.48.71-5.74,1-8.35l16.06-2.08.35.72Z" transform="translate(-6.72 -2.07)" fill="#e8e8e8"/><path d="M16.63,52.58V33.67l7.17,4.78L17.54,52.71Z" transform="translate(-6.72 -2.07)" fill="#e8e8e8"/></svg>