<svg id="Layer_2" data-name="Layer 2" xmlns="http://www.w3.org/2000/svg" viewBox="0 0 78.65 87.69"><circle cx="24.88" cy="27.29" r="1.6"/><path d="M31.41,32.19a2,2,0,1,1,2-2A2,2,0,0,1,31.41,32.19Zm0-3.2a1.2,1.2,0,1,0,1.2,1.2A1.16,1.16,0,0,0,31.41,29Z" transform="translate(-6.52 -2.91)"/><circle cx="17.98" cy="19.09" r="1.6"/><path d="M24.51,24a2,2,0,1,1,2-2A1.94,1.94,0,0,1,24.51,24Zm0-3.3a1.2,1.2,0,1,0,1.2,1.2A1.15,1.15,0,0,0,24.51,20.69Z" transform="translate(-6.52 -2.91)"/><circle cx="24.88" cy="10.09" r="1.6"/><path d="M31.41,15a2,2,0,1,1,2-2A2,2,0,0,1,31.41,15Zm0-3.3a1.22,1.22,0,0,0-1.2,1.2,1.29,1.29,0,0,0,1.2,1.2,1.2,1.2,0,0,0,0-2.4Z" transform="translate(-6.52 -2.91)"/><circle cx="35.78" cy="19.09" r="1.6"/><path d="M42.31,24a2,2,0,1,1,2-2A2,2,0,0,1,42.31,24Zm0-3.3a1.2,1.2,0,1,0,1.2,1.2A1.15,1.15,0,0,0,42.31,20.69Z" transform="translate(-6.52 -2.91)"/><circle cx="46.18" cy="10.09" r="1.6"/><path d="M52.71,15a2,2,0,1,1,2-2A2,2,0,0,1,52.71,15Zm0-3.3a1.22,1.22,0,0,0-1.2,1.2,1.29,1.29,0,0,0,1.2,1.2,1.22,1.22,0,0,0,1.2-1.2A1.29,1.29,0,0,0,52.71,11.69Z" transform="translate(-6.52 -2.91)"/><circle cx="46.18" cy="27.29" r="1.6"/><path d="M52.71,32.19a2,2,0,1,1,2-2A2,2,0,0,1,52.71,32.19Zm0-3.2a1.2,1.2,0,1,0,1.2,1.2A1.22,1.22,0,0,0,52.71,29Z" transform="translate(-6.52 -2.91)"/><circle cx="54.18" cy="19.09" r="1.6"/><path d="M60.71,24a2,2,0,1,1,2-2A2,2,0,0,1,60.71,24Zm0-3.3a1.2,1.2,0,0,0,0,2.4,1.29,1.29,0,0,0,1.2-1.2A1.22,1.22,0,0,0,60.71,20.69Z" transform="translate(-6.52 -2.91)"/><circle cx="61.48" cy="27.29" r="1.6"/><path d="M68,32.19a2,2,0,1,1,2-2A2,2,0,0,1,68,32.19ZM68,29a1.2,1.2,0,1,0,1.2,1.2A1.16,1.16,0,0,0,68,29Z" transform="translate(-6.52 -2.91)"/><circle cx="11.38" cy="27.29" r="1.6"/><path d="M17.91,32.19a2,2,0,1,1,2-2A2,2,0,0,1,17.91,32.19Zm0-3.2a1.2,1.2,0,1,0,1.2,1.2A1.1,1.1,0,0,0,17.91,29Z" transform="translate(-6.52 -2.91)"/><path d="M66.4,15.64A14.26,14.26,0,0,0,42.67,8.92,14.25,14.25,0,0,0,19,15.45,14.27,14.27,0,1,0,32.8,39.39a14.24,14.24,0,0,0,19.78,0A14.27,14.27,0,1,0,66.4,15.64Z" transform="translate(-6.52 -2.91)" fill="none" stroke="#000" stroke-miterlimit="10" stroke-width="4"/><path d="M78.29,46.66H70.44V42.39a14.21,14.21,0,0,1-18-2.06,14.25,14.25,0,0,1-19.79,0,14.24,14.24,0,0,1-17.77,1.79v42a4.48,4.48,0,0,0,4.48,4.48H66a4.47,4.47,0,0,0,4.48-4.48V82.26h7.85a4.87,4.87,0,0,0,4.88-4.88V51.54A4.88,4.88,0,0,0,78.29,46.66ZM32.62,77.32a3.77,3.77,0,0,1-7.54,0v-22a3.77,3.77,0,1,1,7.54,0Zm14,0a3.77,3.77,0,0,1-7.54,0v-22a3.77,3.77,0,0,1,7.54,0Zm13.93,0a3.77,3.77,0,0,1-7.54,0v-22a3.77,3.77,0,0,1,7.54,0ZM78,70.71a4.63,4.63,0,0,1-4.62,4.62h-3V53.59h2.77A4.81,4.81,0,0,1,78,58.4Z" transform="translate(-6.52 -2.91)" stroke="#000" stroke-miterlimit="10" stroke-width="4"/></svg>