<?xml version="1.0" encoding="utf-8"?>
<!-- Generator: Adobe Illustrator 25.2.0, SVG Export Plug-In . SVG Version: 6.00 Build 0)  -->
<svg version="1.1" id="Layer_1" xmlns="http://www.w3.org/2000/svg" xmlns:xlink="http://www.w3.org/1999/xlink" x="0px" y="0px"
	 viewBox="0 0 620.7 349.4" style="enable-background:new 0 0 620.7 349.4;" xml:space="preserve">
<style type="text/css">
	.st0{fill:#A3845F;stroke:#000000;stroke-width:2.6164;stroke-linecap:round;stroke-linejoin:round;}
	.st1{fill:#A3845F;stroke:#000000;stroke-width:2.6164;stroke-miterlimit:10;}
	.st2{fill:#A3845F;stroke:#000000;stroke-width:2.6164;stroke-linecap:round;stroke-miterlimit:10;}
	.st3{fill:none;stroke:#000000;stroke-width:2.6164;stroke-linecap:round;stroke-miterlimit:10;}
</style>
<g id="Layer_3">
	<path class="st0" d="M59.3,40.5l23.4,38.1c0,0,4.4,172.3,0.7,196.8c-2.3,14.8-1.1,19.5,3.7,33.8l0,0c3.2,9.7,10.3,17.8,19.6,22.2
		c17.2,8.2,36.8,6.6,36.8,6.6l428.9-28.5v-28.4c-3,0.3-3.9-10.5-3.9-10.5c-2.3-7.8,0.1-170.7,1.3-188.8c0.5-6.6-0.3-13.3-2.2-19.6
		C551.8,9.7,535,13.7,535,13.7S75.6,17.4,52.1,11c-1.6-0.4-3.1-0.5-4.8-0.3c-6.1,0.8-19,4.4-26,19.9c-6.2,13.9-3.6,30.4,7.4,41
		c5.5,5.3,13.5,9.6,24.8,9.3C83.5,80.2,71.7,40.1,59.3,40.5c-3.9,0.1-7.7,1.5-10.6,4c-4.3,3.7-4.4,10.4-0.4,14.5
		c1.9,2,4.3,3.7,7,3.7c6.5,0,14.8-0.4,14.8-0.4l-0.4-8.2L60.2,54c0,0,1.3,8-5.3,8.1"/>
</g>
<g id="Layer_2_1_">
	<path class="st1" d="M167.9,304.1c1.1,6.5-2.3,13.1-7,18.7H146c20-7.8,2.1-17,2.1-17l-0.1-0.9c8.3-0.5,19.4-0.7,19.4-0.7
		L167.9,304.1z"/>
	<path class="st1" d="M148.1,304.9l0.1,0.4c0,0,17.9,9.7-2.1,17.5c-0.6,0.3-1.3,0.5-1.9,0.7c0,0-21.2,0-23-17.7
		c-1.8-17.7,30.8-18.4,30.8-18.4l2.4,0.1l-0.1,0.1c8.8,4.8,12.8,11.2,13.7,16.5l-0.4,0.1C167.6,304.2,156.4,304.3,148.1,304.9z"/>
	<path class="st1" d="M585.7,326.2c-28.1-0.1-386,5.5-438.9,10.9c-0.8,0.2-1.5-0.5-0.9-0.9c3.5-2.4,10-7.4,15.1-13.5
		c4.6-5.5,8.1-12.1,7-18.7c-0.9-5.3-4.9-11.7-13.7-16.5l0.1-0.1c15.8,0.5,376.3,2.9,419.2-6c3.5-0.7,7.1-0.5,10.5,0.6
		c11.7,4.1,35.8,16,15.2,39.1C596.3,324.3,591.2,326.3,585.7,326.2z"/>
	<path class="st1" d="M83.6,77.1c0.1,0.7-0.4,1.4-1.1,1.5c-0.1,0,1,0,0.9,0L59.8,80c20.8-5.7,11.7-37,0.9-39.4l0.1-0.3h17.1l0.2-0.1
		C84.6,55.7,83,72.3,83.6,77.1z"/>
	<path class="st1" d="M54.8,62.1c6.6-0.1,5.3-8.1,5.3-8.1l10.4,0.1l0.9,8.2c0,0-9.8,0.4-16.3,0.4c-0.2,0-0.3,0-0.4,0L54.8,62.1z"/>
	<path class="st2" d="M50.5,10.4c0.8,0.2,1.6,0.5,2.4,0.7C52.1,11,51.3,10.7,50.5,10.4z"/>
	<path class="st2" d="M54.8,62.6c0.2,0,0.3,0,0.4,0c6.5,0,16.3-0.4,16.3-0.4l-0.9-8.2L60.2,54C60.2,54,61.4,62.5,54.8,62.6
		L54.8,62.6z M60.8,40.4l-0.1,0.3C71.6,43,80.7,74.3,59.8,80c-2.1,0.6-4.2,0.8-6.4,0.9c-11.3,0.3-19.2-3.9-24.8-9.3
		c-10.9-10.6-13.6-27.1-7.3-41c6.9-15.5,19.8-19.1,25.9-19.9c1.7-0.2,3.4-0.1,5,0.4c0.2,0.1,0.4,0.1,0.6,0.2l0,0
		c11.8,4.3,19.9,16.3,25.2,29.1l-0.2,0.1L60.8,40.4L60.8,40.4z"/>
	<path class="st3" d="M52.9,11.2C79.9,17.3,535,13.6,535,13.6s16.7-4,32.5,48.5c1.9,6.3,2.7,13,2.2,19.6
		c-1.3,18.2-3.6,181-1.3,188.8c0,0,0.9,10.8,3.9,10.5"/>
	<path class="st3" d="M54.8,62.6c6.6-0.1,5.3-8.6,5.3-8.6l10.4,0.1l0.9,8.2c0,0-9.8,0.4-16.3,0.4C55,62.6,54.9,62.6,54.8,62.6
		c-2.5-0.2-4.7-1.7-6.5-3.7c-4-4.1-3.8-10.8,0.4-14.5c2.9-2.6,6.8-4,10.6-4c0.5,0,0.9,0.1,1.5,0.2c10.8,2.4,19.9,33.6-0.9,39.4
		c-2.1,0.6-4.2,0.8-6.4,0.9c-11.3,0.3-19.2-3.9-24.8-9.3c-10.9-10.6-13.6-27.1-7.3-41c6.9-15.4,19.8-19,25.9-19.9
		c1.7-0.2,3.4-0.1,5,0.4c0.2,0.1,0.4,0.1,0.6,0.2"/>
	<path class="st3" d="M53,80.9l6.9-0.9l22.6-1.4c0.7-0.1,1.3-0.7,1.2-1.4c0-0.1,0-0.1,0-0.1c-0.6-4.9,1-21.3-5.5-36.9
		c-5.3-12.7-13.3-24.8-25.2-29.1l0,0c-0.8-0.3-1.6-0.5-2.4-0.7"/>
	<path class="st3" d="M154.5,312.3h-18.3c0,0,0-6.5,8.1-7.2c1.2-0.1,2.4-0.2,3.8-0.3c8.3-0.5,19.4-0.7,19.4-0.7"/>
	<path class="st3" d="M148.2,304.7c0,0,17.9,10.3-2.1,18c-0.6,0.3-1.3,0.5-1.9,0.7c0,0-21.2,0-23-17.7
		c-1.8-17.7,30.8-18.4,30.8-18.4l2.4,0.1c15.8,0.5,376.3,2.9,419.2-6c3.5-0.7,7.1-0.5,10.5,0.6c11.7,4.1,35.8,16,15.2,39.1
		c-2.8,3.1-7.8,5-13.4,5c-28.1-0.1-386.4,5.9-438.9,10.9c-0.8,0.2-1.5-0.5-0.9-0.9c3.5-2.4,10-7.4,15.1-13.5
		c4.6-5.5,8.1-12.1,7-18.7c-0.9-5.3-4.9-11.7-13.7-16.5"/>
	<polyline class="st3" points="143.9,323.3 146.1,322.8 161,322.8 	"/>
	<line class="st3" x1="77.9" y1="40.4" x2="60.8" y2="40.4"/>
	<path class="st3" d="M83.8,78c0,0,3.9,173.8-0.5,198.6c-2.4,13.4-1.5,16.8,2.8,29.8l0,0c4.4,13.3,14.9,23.8,28.3,28
		c14.9,4.7,29,3.6,29,3.6"/>
</g>
</svg>
