<?xml version="1.0" encoding="utf-8"?>
<!-- Generator: Adobe Illustrator 25.2.3, SVG Export Plug-In . SVG Version: 6.00 Build 0)  -->
<svg version="1.1" id="Layer_1" xmlns="http://www.w3.org/2000/svg" xmlns:xlink="http://www.w3.org/1999/xlink" x="0px" y="0px"
	 viewBox="0 0 498.2 792" style="enable-background:new 0 0 498.2 792;" xml:space="preserve">
<style type="text/css">
	.st0{fill:#A3845F;stroke:#000000;stroke-width:5;stroke-miterlimit:10;}
	.st1{fill:#A3845F;stroke:#000000;stroke-width:5;stroke-linecap:round;stroke-linejoin:round;stroke-miterlimit:10;}
	.st2{fill:none;stroke:#000000;stroke-width:5;stroke-miterlimit:10;}
	.st3{fill:none;stroke:#000000;stroke-width:5;stroke-linecap:round;stroke-linejoin:round;stroke-miterlimit:10;}
	.st4{fill:none;stroke:#000000;stroke-width:5;stroke-linecap:round;stroke-miterlimit:10;}
	.st5{fill:#A3845F;}
</style>
<path class="st0" d="M85.6,61.9l-25.2,72.8c0,0-4,405.5-17.2,476.3c-5.9,31.4-3.5,63.9,6.7,94.2l2.1,6.2
	c14.4,43.1,53.7,73.1,99,75.3c9.4,0.4,15.5,0,15.5,0L490,732.4c0,0,2.6-556.8,5-591.5c0.6-8.2-2.2-60.5-4.3-96.3
	c-1.1-19-16.9-33.7-35.9-33.4c-97.9,1.3-327.1,4.3-378-4.5c-12.8-2.3-25.8-0.4-37,6c-9.7,5.5-19.9,14.8-26.9,30.4
	C1,69.7,6,101.1,27,121.4c10.6,10.2,25.8,18.3,47.3,17.8C131.8,137.8,109.2,61.2,85.6,61.9c-7.5,0.1-14.7,2.8-20.3,7.7
	c-8.2,7.1-8.4,19.9-0.8,27.7c3.7,3.8,8.3,7,13.3,7c12.4,0,28.2-0.7,28.2-0.7l-0.7-15.7l-17.9-0.1c0,0,2.4,15.4-10.2,15.4"/>
<path class="st0" d="M292.4,722.2l0.8-0.1c2.1,12.5-4.4,25-13.3,35.7h-28.6c38.3-14.8,4.1-32.4,4.1-32.4l-0.1-1.8
	C271.1,722.5,292.4,722.2,292.4,722.2z"/>
<path class="st1" d="M86.6,137.6c-4,1-8.1,1.6-12.2,1.7c-21.5,0.5-36.7-7.5-47.3-17.8c-21-20.4-26-51.8-14.2-78.4
	c14-31.2,40.8-37.2,51.4-38.3c2.2-0.2,4.5-0.1,6.7,0.6c0.8,0.2,1.5,0.4,2.3,0.6l0,0 M105.1,87.9l-17.9-0.1c0,0,2.4,16.3-10.2,16.4
	l0,0c0.3,0,0.5,0,0.8,0c12.4,0,28.2-0.7,28.2-0.7L105.1,87.9z"/>
<path class="st0" d="M68.7,4.5c1.6,0.4,3.1,0.9,4.6,1.4C71.7,5.6,70.2,5.1,68.7,4.5z"/>
<path class="st0" d="M77.7,104.3c-0.3,0-0.5,0-0.8,0h-1c12.6-0.1,11.2-16.4,11.2-16.4L107,88l1.8,15.7
	C108.8,103.6,90.1,104.3,77.7,104.3z"/>
<path class="st2" d="M73.3,5.9c42.4,9.6,280.2,6.6,380.7,5.2c19.4-0.3,35.5,14.8,36.6,34.1c2.1,35.8,4.8,87.5,4.3,95.6"/>
<path class="st3" d="M77,104.2c12.6-0.1,10.2-16.4,10.2-16.4l20.9,0.1l0.8,15.7c0,0-18.8,0.7-31.2,0.7
	C77.5,104.3,77.2,104.3,77,104.2c-4.7-0.3-9-3.3-12.5-7c-7.6-7.8-7.3-20.6,0.8-27.7c5.6-4.9,12.9-7.6,20.3-7.7
	c0.9,0,1.8,0.1,2.8,0.3c20.7,4.5,38.1,64.4-1.8,75.3c-4,1-8.1,1.6-12.2,1.7c-21.6,0.5-36.8-7.5-47.4-17.8
	C6.1,101.1,1.1,69.7,12.9,43.1c14-31.2,40.8-37.2,51.4-38.3c2.2-0.2,4.5-0.1,6.7,0.6c0.8,0.2,1.5,0.4,2.3,0.6"/>
<g>
	<path class="st0" d="M492,738.3c1.4,14.3-9.8,27-24.2,27.1c-0.1,0-0.2,0-0.3,0c-53.7-0.2-228.8,0.9-322.8,20.9
		c-1.6,0.3-2.8-0.9-1.7-1.7c6.7-4.6,19.1-14,28.9-25.8c8.8-10.6,15.4-23.2,13.3-35.7c-1.8-10.2-9.3-20.5-26.2-29.6l0.1-2.1
		c30.2,1,203.2,5.6,285.1-11.4C450.2,678.7,484.9,666.9,492,738.3z"/>
	<path class="st2" d="M160.5,738.8h-36c0,0,0-12.4,15.5-13.8c2.2-0.2,4.6-0.4,7.2-0.5c15.8-1,37.1-1.3,37.1-1.3"/>
	<path class="st2" d="M147.4,724.3c0,0,34.2,19.6-4.1,34.4c-1.1,0.5-2.4,0.9-3.6,1.3c0,0-40.6,0-44-33.8s58.8-35.1,58.8-35.1
		l4.5,0.2c30.2,1,203.2,5.6,285.1-11.4c6.1-1.3,47-6.5,49.3,58.4c0.5,14.6-10.9,26.9-25.5,27c-0.1,0-0.2,0-0.3,0
		c-53.7-0.2-228.8,0.9-322.8,20.9c-1.6,0.3-2.8-0.9-1.7-1.7c6.7-4.6,19.1-14,28.9-25.8c8.8-10.6,15.4-23.2,13.3-35.7
		c-1.8-10.2-9.3-22.5-26.2-31.6"/>
	<polyline class="st4" points="140.2,759.8 144.3,759.8 171.9,758.8 	"/>
</g>
<path class="st2" d="M60.4,135.7c0,0-3.9,400.2-16.5,471.5c-6.1,34.4-3.5,69.8,7.6,102.9l0,0c15,44.8,56.4,75.7,103.6,76.8
	c7,0.2,11.3-0.2,11.3-0.2"/>
<path class="st4" d="M61.4,139.1c0,0,24.5-125.9,1.9-134.2"/>
<path class="st5" d="M141.9,143.8c-0.1,0-78.3-1.8-78.3-1.8c-1.4,0.1,10.8-83.4,10.8-83.4H125"/>
</svg>
